<?xml version="1.0" encoding="iso-8859-1"?>
<!-- Generator: Adobe Illustrator 18.0.0, SVG Export Plug-In . SVG Version: 6.00 Build 0)  -->
<!DOCTYPE svg PUBLIC "-//W3C//DTD SVG 1.1//EN" "http://www.w3.org/Graphics/SVG/1.1/DTD/svg11.dtd">
<svg version="1.1" id="Capa_1" xmlns="http://www.w3.org/2000/svg" xmlns:xlink="http://www.w3.org/1999/xlink" x="0px" y="0px"
	width="30px" height="30px" viewBox="0 0 485.932 485.932" style="enable-background:new 0 0 485.932 485.932;" xml:space="preserve">
<g fill="#FF8418">
	<path d="M372.997,261.44c-1.506-0.163-3.034-0.246-4.541-0.246c-21.399,0-39.271,16.063-41.571,37.361
		c-2.479,22.945,14.173,43.632,37.122,46.113c1.507,0.163,3.036,0.246,4.544,0.246c0.001,0,0,0,0.001,0
		c21.396,0,39.268-16.061,41.568-37.359C412.599,284.611,395.946,263.924,372.997,261.44z M396.202,306.052
		c-1.531,14.175-13.418,24.863-27.65,24.863c-1.007,0-2.03-0.056-3.038-0.164c-15.275-1.652-26.359-15.42-24.708-30.691
		c1.531-14.176,13.419-24.865,27.652-24.865c1.006,0,2.028,0.056,3.035,0.164C386.767,277.013,397.851,290.781,396.202,306.052z"/>
	<path d="M131.851,261.19c-4.672,0-9.297,0.783-13.745,2.329c-10.562,3.671-19.062,11.233-23.934,21.295
		c-4.873,10.063-5.535,21.421-1.863,31.982c5.848,16.821,21.738,28.123,39.54,28.124c0.001,0,0.001,0,0.001,0
		c4.671,0,9.294-0.783,13.742-2.328c10.562-3.672,19.062-11.235,23.934-21.297c4.873-10.063,5.534-21.421,1.863-31.98
		C165.544,272.492,149.655,261.19,131.851,261.19z M156.927,315.193c-3.243,6.696-8.9,11.73-15.929,14.174
		c-2.966,1.03-6.043,1.553-9.146,1.553h-0.001c-11.849,0-22.425-7.524-26.318-18.722c-2.443-7.027-2.003-14.586,1.24-21.281
		c3.243-6.696,8.9-11.73,15.93-14.173c2.966-1.031,6.045-1.554,9.149-1.554c11.849,0,22.424,7.522,26.315,18.721
		C160.609,300.939,160.169,308.497,156.927,315.193z"/>
	<path d="M484.435,100.601c-1.327-1.688-3.356-2.674-5.503-2.674H290.036c-3.866,0-7,3.134-7,7l-0.022,18.514H7
		c-3.866,0-7,3.134-7,7v23.443c0,2.523,1.358,4.852,3.555,6.094l107.438,60.735c-16.709,4.231-31.897,13.483-43.394,26.775
		c-14.845,17.163-22.117,39.078-20.478,61.708c1.64,22.631,11.995,43.269,29.158,58.111c15.431,13.346,35.153,20.695,55.533,20.697
		c0.003,0,0.001,0,0.005,0c24.702,0,48.135-10.711,64.283-29.382c7.016-8.111,12.316-17.292,15.808-27.101h76.543
		c4.869,13.761,13.235,26.092,24.591,35.878c15.414,13.286,35.097,20.604,55.424,20.605c0.002,0,0.003,0,0.004,0
		c24.76,0,48.225-10.749,64.378-29.49c7.275-8.441,12.711-18.03,16.173-28.279h21.788c3.866,0,7-3.134,7-7V215.196
		c0-3.866-3.134-7-7-7h-26.773v-65.393h27.391c3.229,0,6.04-2.209,6.802-5.347l7.504-30.877
		C486.241,104.493,485.762,102.289,484.435,100.601z M185.511,349.465c-13.489,15.597-33.062,24.541-53.698,24.54
		c-17.018-0.001-33.488-6.141-46.376-17.287c-14.335-12.397-22.983-29.632-24.352-48.532c-1.37-18.901,4.704-37.204,17.103-51.539
		c13.489-15.596,33.063-24.541,53.702-24.541c17.016,0,33.485,6.139,46.374,17.286c14.334,12.396,22.982,29.633,24.35,48.534
		C203.983,316.827,197.909,335.131,185.511,349.465z M422.245,349.374c-13.493,15.654-33.094,24.632-53.777,24.631
		c-16.974-0.001-33.412-6.112-46.285-17.209c-14.355-12.371-23.033-29.593-24.435-48.491c-1.401-18.898,4.641-37.211,17.014-51.565
		c13.494-15.655,33.097-24.633,53.782-24.633c16.972,0,33.408,6.11,46.282,17.207c14.355,12.371,23.032,29.593,24.434,48.492
		C440.66,316.705,434.618,335.019,422.245,349.374z M463.81,222.196v94.039h-11.377c0.987-6.364,1.276-12.883,0.788-19.465
		c-1.677-22.63-12.067-43.25-29.255-58.063c-8.669-7.472-18.69-13.056-29.414-16.512H463.81z M383.329,208.196V171.31l46.708-18.906
		v55.793H383.329z M465.925,128.804H357.372c-3.866,0-7,3.134-7,7v72.234c-21.413,4.071-40.812,15.238-55.14,31.863
		c-7.136,8.277-12.748,17.66-16.7,27.687l-37.337-22.482c-1.531-0.922-3.355-1.223-5.102-0.843l-36.22,7.895
		c-3.626-4.826-7.776-9.313-12.451-13.355c-14.657-12.676-33.186-19.93-52.471-20.627L14,149.8V137.44h53.966v26.515
		c0,3.866,3.134,7,7,7c3.866,0,7-3.134,7-7V137.44h21.841v44.526c0,3.866,3.134,7,7,7c3.866,0,7-3.134,7-7V137.44h21.841v60.879
		c0,3.866,3.134,7,7,7c3.866,0,7-3.134,7-7V137.44h21.841v72.099c0,3.866,3.134,7,7,7c3.866,0,7-3.134,7-7V137.44h21.841v88.794
		c0,3.866,3.134,7,7,7s7-3.134,7-7V137.44h21.841v88.794c0,3.866,3.134,7,7,7c3.866,0,7-3.134,7-7V137.44h21.841v75.099
		c0,3.866,3.134,7,7,7c3.866,0,7-3.134,7-7l0.022-100.612h172.991L465.925,128.804z"/>
</g>
<g>
</g>
<g>
</g>
<g>
</g>
<g>
</g>
<g>
</g>
<g>
</g>
<g>
</g>
<g>
</g>
<g>
</g>
<g>
</g>
<g>
</g>
<g>
</g>
<g>
</g>
<g>
</g>
<g>
</g>
</svg>
