<svg id="Layer_1" enable-background="new 0 0 64 64" height="20px" viewBox="0 0 64 64" width="20px" xmlns="http://www.w3.org/2000/svg"><path d="m43 14c0-3.9-3.1-7-7-7v1.5c.3.6.5 1.3.5 2 0 2.5-2 4.5-4.5 4.5s-4.5-2-4.5-4.5c0-.7.2-1.4.5-2v-1.5c-3.9 0-7 3.1-7 7v3h22z"/><path d="m20 21h24c.6 0 1-.4 1-1s-.4-1-1-1h-24c-.6 0-1 .4-1 1s.4 1 1 1z"/><path d="m39.2 36c1.8-1.7 2.8-4 2.8-6.5v-.7l1.4-.7c.4-.2.7-.6.6-1v-.9c0-.6-.5-1.2-1.2-1.2h-.8v-2h-20v2h-.8c-.6 0-1.2.5-1.2 1.2v.9c0 .4.2.9.6 1l1.4.7v.7c0 2.5 1 4.8 2.8 6.5.4.4.9.8 1.4 1.1l3.1 2c1.6 1 3.7 1 5.4 0l3.1-2c.5-.3 1-.7 1.4-1.1z"/><path d="m34 6.5v-1.5c0-.6-.4-1-1-1h-2c-.6 0-1 .4-1 1v1.5c1.3-.7 2.7-.7 4 0z"/><path d="m52.3 43.1h2.9v2.2h-2.9z" transform="matrix(.707 -.707 .707 .707 -15.546 50.968)"/><path d="m32 41.9c-1.3 0-2.6-.4-3.8-1.1l-3.1-2s-.1-.1-.1-.1l2.4 4.7c.2.3.5.6.9.6h7.5c.4 0 .7-.2.9-.6l2.4-4.7s-.1.1-.1.1l-3.1 2c-1.3.7-2.6 1.1-3.9 1.1z"/><circle cx="32" cy="10.5" r="2.5"/><path d="m54.3 48.1 1.1 4.5.1-.1c.3-.5.5-1.1.5-1.7v-4.4z"/><path d="m50.5 45.9-11.2 11.2c-.4.4-.4 1.1 0 1.6.4.4 1.1.4 1.6 0l11.2-11.2z"/><path d="m43.4 59h10.6v-3.9l-1.3-5.3z"/><path d="m13.8 41c-2.4 1.7-3.8 4.4-3.8 7.3v10.7h7v-8.9c0-1.3-.3-2.5-.8-3.7z"/><path d="m45 42.5 4.9 1.2 1.7-1.7h-4.9c-.6 0-1.2.2-1.7.5z"/><path d="m48.2 45.3-7.2-1.8 2.1-2.1c.9-.9 2.2-1.5 3.5-1.5h1.8c-.6-.2-1.2-.4-1.8-.5l-5.3-1-2.9 5.9c-.5 1-1.5 1.7-2.7 1.7h-7.5c-1.1 0-2.2-.6-2.7-1.7l-2.9-5.9-5.3 1c-.6.1-1.2.3-1.8.5l2.5 5.7c.6 1.4 1 2.9.9 4.5v8.9h18.2c-.1-.4-.2-.7-.2-1.1 0-.8.3-1.6.9-2.2zm-25.2 4.7v-2h18v2z" fill="#1D28FF"/></svg>